HIERARCHY
ROOT Hips
{
 OFFSET 0.000000 0.000000 0.000000
 CHANNELS 6 Xposition Yposition Zposition Yrotation Xrotation Zrotation
 JOINT Chest
 {
  OFFSET 0.000000 9.585900 0.002600
  CHANNELS 3 Yrotation Xrotation Zrotation
  JOINT Chest2
  {
   OFFSET 0.000000 9.601200 -0.005300
   CHANNELS 3 Yrotation Xrotation Zrotation
   JOINT Chest3
   {
    OFFSET 0.000000 9.561800 0.000000
    CHANNELS 3 Yrotation Xrotation Zrotation
    JOINT Chest4
    {
     OFFSET 0.000000 9.552100 0.000000
     CHANNELS 3 Yrotation Xrotation Zrotation
     JOINT Neck
     {
      OFFSET 0.000000 14.453000 0.000000
      CHANNELS 3 Yrotation Xrotation Zrotation
      JOINT Head
      {
       OFFSET 0.000000 8.936500 -0.011300
       CHANNELS 3 Yrotation Xrotation Zrotation
       End Site
       {
        OFFSET 0.000000 17.073600 -0.006000
       }
      }
     }
     JOINT RightCollar
     {
      OFFSET -2.921100 9.558500 0.000000
      CHANNELS 3 Yrotation Xrotation Zrotation
      JOINT RightShoulder
      {
       OFFSET -13.519700 0.000000 0.000000
       CHANNELS 3 Yrotation Xrotation Zrotation
       JOINT RightElbow
       {
        OFFSET 0.000000 -29.696600 0.000000
        CHANNELS 3 Yrotation Xrotation Zrotation
        JOINT RightWrist
        {
         OFFSET 0.000000 -24.004700 0.000000
         CHANNELS 3 Yrotation Xrotation Zrotation
         End Site
         {
          OFFSET 0.000000 -17.728500 0.000000
         }
        }
       }
      }
     }
     JOINT LeftCollar
     {
      OFFSET 2.921100 9.558500 0.000000
      CHANNELS 3 Yrotation Xrotation Zrotation
      JOINT LeftShoulder
      {
       OFFSET 13.519700 0.000000 0.000000
       CHANNELS 3 Yrotation Xrotation Zrotation
       JOINT LeftElbow
       {
        OFFSET 0.000000 -29.696600 0.000000
        CHANNELS 3 Yrotation Xrotation Zrotation
        JOINT LeftWrist
        {
         OFFSET 0.000000 -24.004700 0.000000
         CHANNELS 3 Yrotation Xrotation Zrotation
         End Site
         {
          OFFSET 0.000000 -17.728500 0.000000
         }
        }
       }
      }
     }
    }
   }
  }
 }
 JOINT RightHip
 {
  OFFSET -7.771700 -0.012900 -0.001300
  CHANNELS 3 Yrotation Xrotation Zrotation
  JOINT RightKnee
  {
   OFFSET 0.000000 -40.869800 0.001200
   CHANNELS 3 Yrotation Xrotation Zrotation
   JOINT RightAnkle
   {
    OFFSET 0.000000 -39.717900 0.002100
    CHANNELS 3 Yrotation Xrotation Zrotation
    JOINT RightToe
    {
     OFFSET 0.000000 -4.965400 11.033500
     CHANNELS 3 Yrotation Xrotation Zrotation
     End Site
     {
      OFFSET 0.000000 -1.423100 5.872300
     }
    }
   }
  }
 }
 JOINT LeftHip
 {
  OFFSET 7.771700 -0.012900 -0.001300
  CHANNELS 3 Yrotation Xrotation Zrotation
  JOINT LeftKnee
  {
   OFFSET 0.000000 -40.869800 0.001200
   CHANNELS 3 Yrotation Xrotation Zrotation
   JOINT LeftAnkle
   {
    OFFSET 0.000000 -39.717900 0.002100
    CHANNELS 3 Yrotation Xrotation Zrotation
    JOINT LeftToe
    {
     OFFSET 0.000000 -4.965400 11.033500
     CHANNELS 3 Yrotation Xrotation Zrotation
     End Site
     {
      OFFSET 0.000000 -1.423100 5.872300
     }
    }
   }
  }
 }
}
MOTION
Frames: 7
Frame Time: 0.008333
0.000000 85.388000 0.000000 0.000000 -5.767877 0.000000 0.000000 11.653817 0.000000 0.000000 -5.885947 0.000000 0.000000 -0.000000 0.000000 0.000000 -0.000000 0.000000 0.000000 12.528835 0.000000 0.000000 0.711642 0.000000 0.000000 -0.000000 0.000000 0.000000 0.000000 -90.000000 0.000000 -2.309062 0.000000 0.000000 2.309062 0.000000 0.000000 -0.000000 0.000000 0.000000 -0.000000 90.000000 0.000000 -2.309062 0.000000 0.000000 2.309062 0.000000 0.000000 8.520406 0.000000 0.000000 1.905762 0.000000 -0.000000 -4.658285 0.000000 0.000000 -0.000000 0.000000 0.000000 8.520406 0.000000 0.000000 1.905762 0.000000 -0.000000 -4.658285 0.000000 0.000000 -0.000000 0.000000
-103.184539 57.273788 -2.661059 168.408681 -8.823475 1.371661 4.859793 6.863140 3.426758 0.264075 0.369240 0.132998 0.475613 0.677655 0.224517 4.824231 6.582743 2.494677 11.060347 4.680755 -1.480427 23.190883 -25.883468 -9.197109 5.298222 -5.305305 -6.196265 -26.079427 -33.962318 -39.301417 -77.724351 -58.299638 64.326419 -12.468500 -7.342603 -22.876427 -3.407360 -6.891219 6.699088 47.436769 -34.318459 19.181896 80.322336 -24.035643 -81.509015 12.233925 -10.935082 -0.582025 -12.841727 -64.131234 -0.637594 -35.951384 74.012010 -37.037333 -2.690615 -7.848052 -0.515680 -0.325609 1.073360 0.010453 3.916163 -66.210322 5.078150 41.984117 61.690506 32.952308 -18.410333 -8.183035 5.721737 -0.379097 -1.026111 -0.137792
-103.186617 57.270064 -2.656799 168.420603 -8.804253 1.356282 4.854682 6.854549 3.436580 0.269616 0.385274 0.128045 0.468857 0.656917 0.229135 4.805255 6.599482 2.473314 10.972256 4.577538 -1.530976 23.124171 -26.035901 -9.246148 5.278409 -5.292610 -6.160872 -26.206662 -33.887111 -39.208758 -77.492718 -58.085564 64.033118 -12.502327 -7.317375 -23.060401 -3.364276 -6.810114 6.684697 47.600603 -34.246180 18.970965 80.334437 -24.096560 -81.415880 12.226932 -10.915417 -0.544472 -12.748690 -64.157452 -0.650470 -36.135564 73.988043 -37.231921 -2.742348 -7.822299 -0.500615 -0.302419 1.050999 0.025177 3.862576 -66.230697 5.124659 41.990862 61.677812 32.948582 -18.437670 -8.189594 5.719887 -0.374976 -1.020696 -0.140496
-103.191324 57.265869 -2.654264 168.427060 -8.795161 1.351815 4.851067 6.862136 3.436666 0.268989 0.372121 0.129545 0.465830 0.687733 0.217919 4.794417 6.585174 2.465312 10.897641 4.487815 -1.587224 23.088662 -26.179916 -9.306560 5.177723 -5.240419 -6.127593 -26.290822 -33.824796 -39.070818 -77.277047 -57.928798 63.774214 -12.520988 -7.293575 -23.233305 -3.332591 -6.721421 6.652609 47.757271 -34.164350 18.754455 80.352770 -24.171297 -81.322446 12.215472 -10.895549 -0.520417 -12.632637 -64.176913 -0.683030 -36.325977 73.964224 -37.436554 -2.804060 -7.804213 -0.489852 -0.262516 1.035086 0.046064 3.853039 -66.242842 5.128103 41.989660 61.673209 32.949209 -18.469457 -8.199937 5.716691 -0.354113 -1.015386 -0.139427
-103.210683 57.261424 -2.654672 168.437854 -8.789504 1.428285 4.829797 6.883329 3.353900 0.273378 0.370550 0.129760 0.456119 0.685907 0.215149 4.769644 6.600255 2.446778 10.868069 4.410088 -1.627227 23.072323 -26.318713 -9.393885 5.153853 -5.231804 -6.105865 -26.432796 -33.698374 -38.926521 -77.080330 -57.829607 63.540918 -12.521531 -7.270383 -23.367285 -3.290165 -6.636973 6.610433 47.907103 -34.072583 18.534329 80.371329 -24.265227 -81.228383 12.200225 -10.876840 -0.508458 -12.358491 -64.211764 -0.878334 -36.315436 73.955680 -37.562659 -2.810812 -7.770102 -0.306032 -0.366110 1.031273 -0.017789 4.027106 -66.244742 4.923343 41.990089 61.666057 32.951531 -18.519243 -8.175252 5.703184 -0.299587 -1.041570 -0.120329
-103.223593 57.255773 -2.650185 168.462962 -8.766033 1.451547 4.794111 6.875820 3.320035 0.275571 0.372690 0.129719 0.457295 0.677947 0.215301 4.721903 6.632257 2.419182 10.860058 4.331720 -1.663024 23.079113 -26.440566 -9.483115 5.095516 -5.188959 -6.063721 -26.541953 -33.595905 -38.751258 -76.902385 -57.785152 63.333275 -12.508054 -7.248492 -23.445808 -3.235462 -6.554850 6.559003 48.055328 -33.971186 18.312019 80.378235 -24.382089 -81.129633 12.186219 -10.862704 -0.501663 -12.210710 -64.252272 -0.959947 -36.379383 73.941650 -37.710978 -2.823810 -7.743683 -0.213035 -0.429375 1.022953 -0.033772 4.081114 -66.268365 4.833742 41.981363 61.640563 32.952220 -18.561297 -8.157079 5.685456 -0.250619 -1.046932 -0.105145
-103.234724 57.250000 -2.646932 168.469154 -8.754253 1.462426 4.777153 6.875047 3.303525 0.277050 0.377203 0.126146 0.459741 0.671174 0.217195 4.673554 6.655094 2.397470 10.868563 4.276605 -1.688039 23.088332 -26.543751 -9.581440 5.029201 -5.124541 -6.018137 -26.652161 -33.491210 -38.559421 -76.737939 -57.786760 63.153240 -12.484801 -7.227302 -23.469082 -3.187057 -6.460082 6.488534 48.207749 -33.858960 18.089282 80.363768 -24.518431 -81.022508 12.175733 -10.855389 -0.495796 -12.072615 -64.278531 -1.017364 -36.486368 73.922134 -37.878369 -2.846197 -7.716601 -0.141555 -0.439075 0.999625 -0.077597 4.145895 -66.285300 4.749314 41.987823 61.619610 32.983115 -18.573563 -8.154735 5.673815 -0.236460 -1.043153 -0.099253
